<?xml version="1.0" encoding="utf-8"?>
<!-- Generator: Adobe Illustrator 21.0.0, SVG Export Plug-In . SVG Version: 6.00 Build 0)  -->
<svg version="1.1" id="Layer_1" xmlns="http://www.w3.org/2000/svg" xmlns:xlink="http://www.w3.org/1999/xlink" x="0px" y="0px"
	 viewBox="0 0 433.3 106.7" style="enable-background:new 0 0 433.3 106.7;" xml:space="preserve">
<style type="text/css">
	.st0{fill:#77382F;}
	.st1{fill:none;stroke:#77382F;stroke-width:0.1417;stroke-miterlimit:2.6131;}
	.st2{fill-rule:evenodd;clip-rule:evenodd;fill:#77382F;}
</style>
<path class="st0" d="M401.7,50v9.3h24.7c0.6,0,1-0.1,1.3-0.3c0.3-0.2,0.5-0.7,0.7-1.2h0.9v8.8h-0.9c-0.2-0.6-0.4-1-0.7-1.2
	c-0.3-0.2-0.7-0.3-1.3-0.3h-34.9v-0.8c0.7-0.2,1.1-0.4,1.4-0.6c0.3-0.3,0.4-0.7,0.4-1.2V33.6c0-0.5-0.1-0.9-0.4-1.2
	c-0.3-0.3-0.7-0.5-1.4-0.6V31h34.2c0.6,0,1-0.1,1.3-0.4c0.3-0.2,0.5-0.7,0.7-1.3h0.9v8.8h-0.9c-0.2-0.6-0.4-1-0.7-1.2
	c-0.3-0.2-0.7-0.3-1.3-0.3h-24v8h15.6c0.6,0,1-0.1,1.3-0.3c0.3-0.2,0.5-0.7,0.7-1.2h0.9v8.6h-0.9c-0.2-0.6-0.4-1-0.7-1.2
	c-0.3-0.2-0.7-0.4-1.3-0.4H401.7z M380.4,53.2l5.3,7.1l-0.7,0.4c-0.5-0.4-1-0.6-1.3-0.6s-1.3,0.4-2.8,1.2c-3.2,1.6-5.9,2.7-8.1,3.3
	c-2.2,0.6-4.8,0.9-7.9,0.9c-6,0-11-1.3-14.9-3.8c-2.3-1.5-4.1-3.3-5.4-5.5c-1.5-2.5-2.3-5.3-2.3-8.3c0-4.1,1.4-7.7,4.1-10.7
	c4.1-4.5,10.3-6.8,18.5-6.8c3,0,5.6,0.3,7.8,0.8c2.2,0.6,4.9,1.7,8.2,3.3c1.6,0.8,2.5,1.2,2.8,1.2s0.8-0.2,1.3-0.6l0.7,0.4l-5.3,7.1
	l-0.8-0.4c0-0.3,0.1-0.5,0.1-0.7c0-0.5-0.2-0.9-0.7-1.3c-0.5-0.4-1.3-0.9-2.5-1.5c-3.3-1.7-6.8-2.5-10.5-2.5c-4.4,0-7.9,1-10.5,2.9
	c-3.1,2.3-4.6,5.2-4.6,8.9c0,3.7,1.5,6.6,4.6,8.9c2.6,1.9,6.1,2.9,10.5,2.9c3.7,0,7.2-0.8,10.5-2.5c1.2-0.6,2-1.1,2.5-1.5
	c0.5-0.4,0.7-0.9,0.7-1.4c0-0.2,0-0.4-0.1-0.6L380.4,53.2z M302.7,41.7v20.6c0,0.5,0.1,0.9,0.4,1.2c0.3,0.3,0.7,0.5,1.4,0.6v0.8
	h-11.3v-0.8c0.7-0.2,1.1-0.4,1.4-0.6c0.3-0.3,0.4-0.7,0.4-1.2V33.6c0-0.5-0.1-0.9-0.4-1.1c-0.3-0.3-0.7-0.5-1.4-0.6V31h13.1v0.8
	c-0.8,0.2-1.2,0.6-1.2,1.1c0,0.4,0.3,0.8,0.8,1.3l21.2,19.4V33.6c0-0.5-0.1-0.9-0.4-1.1c-0.3-0.3-0.7-0.5-1.4-0.6V31h11.3v0.8
	c-0.7,0.2-1.1,0.4-1.4,0.6c-0.3,0.3-0.4,0.6-0.4,1.1v28.7c0,0.5,0.1,0.9,0.4,1.2c0.3,0.3,0.7,0.5,1.4,0.6v0.8h-12.1v-0.8
	c0.8-0.2,1.2-0.5,1.2-1.1c0-0.3-0.5-0.9-1.4-1.7L302.7,41.7z M272.1,51.6l-6.2-12.1l-6.3,12.1H272.1z M274.5,56.2h-17.5l-2.6,4.8
	c-0.4,0.7-0.5,1.2-0.5,1.6c0,0.7,0.6,1.2,1.9,1.5v0.8h-12.7v-0.8c0.7-0.1,1.3-0.4,1.7-0.7c0.4-0.3,0.8-1,1.3-1.9l14.1-26
	c0.5-0.8,0.7-1.5,0.7-2c0-0.8-0.5-1.3-1.6-1.6V31H273v0.8c-1.1,0.3-1.7,0.8-1.7,1.5c0,0.5,0.2,1,0.5,1.6L286.5,61
	c0.6,1.1,1.2,1.9,1.6,2.3c0.5,0.4,1.1,0.7,1.9,0.8v0.8h-14.1v-0.8c1.2-0.2,1.9-0.7,1.9-1.5c0-0.3-0.2-0.9-0.6-1.5L274.5,56.2z
	 M229.3,62.3V33.6c0-0.5-0.1-0.9-0.4-1.1c-0.3-0.3-0.7-0.5-1.4-0.6V31h12v0.8c-0.7,0.2-1.1,0.4-1.4,0.6c-0.3,0.3-0.4,0.7-0.4,1.2
	v28.7c0,0.5,0.1,0.9,0.4,1.2c0.3,0.3,0.7,0.5,1.4,0.6v0.8h-12v-0.8c0.7-0.2,1.1-0.4,1.4-0.6C229.2,63.2,229.3,62.8,229.3,62.3z
	 M196.9,59.3h23.6c0.6,0,1-0.1,1.3-0.3c0.3-0.2,0.5-0.7,0.7-1.2h0.9v8.8h-0.9c-0.2-0.6-0.4-1-0.7-1.2c-0.3-0.2-0.7-0.3-1.3-0.3
	h-33.8v-0.8c0.7-0.2,1.1-0.4,1.4-0.6c0.3-0.3,0.4-0.7,0.4-1.2V33.6c0-0.5-0.1-0.9-0.4-1.2c-0.3-0.3-0.7-0.5-1.4-0.6V31h12v0.8
	c-0.7,0.2-1.1,0.4-1.4,0.6c-0.3,0.3-0.4,0.7-0.4,1.2V59.3z M153.2,50v9.3h24.7c0.6,0,1-0.1,1.3-0.3c0.3-0.2,0.5-0.7,0.7-1.2h0.9v8.8
	h-0.9c-0.2-0.6-0.4-1-0.7-1.2c-0.3-0.2-0.7-0.3-1.3-0.3H143v-0.8c0.7-0.2,1.1-0.4,1.4-0.6c0.3-0.3,0.4-0.7,0.4-1.2V33.6
	c0-0.5-0.1-0.9-0.4-1.2c-0.3-0.3-0.7-0.5-1.4-0.6V31h34.2c0.6,0,1-0.1,1.3-0.4c0.3-0.2,0.5-0.7,0.7-1.3h0.9v8.8h-0.9
	c-0.2-0.6-0.4-1-0.7-1.2c-0.3-0.2-0.7-0.3-1.3-0.3h-24v8h15.6c0.6,0,1-0.1,1.3-0.3c0.3-0.2,0.5-0.7,0.7-1.2h0.9v8.6h-0.9
	c-0.2-0.6-0.4-1-0.7-1.2c-0.3-0.2-0.7-0.4-1.3-0.4H153.2z M106.6,45.5h12.9c1.9,0,3.3-0.1,4.1-0.2c0.8-0.1,1.5-0.3,2.2-0.6
	c1.4-0.7,2.1-1.9,2.1-3.7c0-1.8-0.7-3-2.1-3.7c-0.7-0.3-1.4-0.5-2.2-0.6c-0.8-0.1-2.1-0.1-4.1-0.1h-12.9V45.5z M106.6,51.1v11.2
	c0,0.5,0.1,0.9,0.4,1.2c0.3,0.3,0.7,0.5,1.4,0.6v0.8h-12v-0.8c0.7-0.2,1.1-0.4,1.4-0.6c0.3-0.3,0.4-0.6,0.4-1.1V33.6
	c0-0.5-0.1-0.9-0.4-1.2c-0.3-0.3-0.7-0.5-1.4-0.6V31h24c2.9,0,5.3,0.2,7,0.4c1.7,0.3,3.2,0.8,4.5,1.6c1.5,0.9,2.6,2,3.3,3.5
	c0.7,1.4,1,2.9,1,4.6c0,5.5-3.5,8.8-10.4,9.7l7.5,9.4c1.3,1.6,2.3,2.7,2.9,3.2c0.6,0.5,1.4,0.7,2.2,0.8v0.8h-13.9v-0.8
	c1-0.1,1.4-0.4,1.4-0.9c0-0.3-0.4-1-1.3-2.2l-7.8-10H106.6z"/>
<path class="st0" d="M326,90.6c0,0.8,0.1,1.4,0.2,1.7c0.2,0.5,0.5,0.8,0.9,1.1c0.4,0.3,0.9,0.4,1.5,0.4c1.2,0,2.2-0.6,2.9-1.8
	c0.7-1.2,1.1-2.5,1.1-3.7c0-0.9-0.2-1.7-0.7-2.2c-0.5-0.5-1.1-0.8-1.8-0.8c-0.5,0-1,0.1-1.5,0.4c-0.4,0.3-0.9,0.6-1.3,1.1
	c-0.4,0.5-0.7,1.1-1,1.8C326.1,89.5,326,90.1,326,90.6z M321.9,99.4l3.5-15.3h1.9l-0.4,1.5c0.7-0.7,1.3-1.1,1.9-1.4
	c0.6-0.3,1.2-0.4,1.8-0.4c1.2,0,2.1,0.4,2.9,1.2c0.8,0.8,1.1,1.9,1.1,3.3c0,1.2-0.2,2.2-0.6,3.2c-0.4,0.9-0.9,1.7-1.5,2.3
	c-0.6,0.6-1.2,1-1.9,1.3c-0.6,0.3-1.3,0.4-1.9,0.4c-1.5,0-2.6-0.7-3.4-2l-1.4,6H321.9z M312.3,90.8c0,1,0.3,1.8,0.8,2.4
	c0.6,0.5,1.3,0.8,2.1,0.8c0.4,0,0.9-0.1,1.3-0.2c0.4-0.2,0.8-0.4,1.2-0.7c0.4-0.3,0.7-0.7,1-1.1c0.3-0.4,0.5-0.9,0.6-1.4
	c0.2-0.7,0.4-1.3,0.4-2c0-1-0.3-1.8-0.8-2.3c-0.6-0.6-1.2-0.8-2.1-0.8c-0.6,0-1.2,0.1-1.8,0.4c-0.5,0.3-1,0.7-1.4,1.2
	c-0.4,0.5-0.7,1.2-0.9,1.9C312.4,89.6,312.3,90.2,312.3,90.8z M310.2,91c0-2.2,0.7-3.9,2.1-5.4c1.2-1.2,2.7-1.8,4.5-1.8
	c1.5,0,2.6,0.4,3.5,1.3c0.9,0.8,1.3,2,1.3,3.4c0,1.3-0.3,2.5-0.8,3.5c-0.6,1.1-1.4,1.9-2.4,2.5c-1,0.6-2.1,0.9-3.3,0.9
	c-0.9,0-1.8-0.2-2.6-0.6c-0.8-0.4-1.4-0.9-1.8-1.6C310.4,92.6,310.2,91.8,310.2,91z M302.3,95.2l3.1-13.5h-5.5l0.4-1.7h13.2
	l-0.4,1.7h-5.5l-3.1,13.5H302.3z M281.1,88.7h6.8c0-0.2,0-0.3,0-0.4c0-0.9-0.3-1.7-0.8-2.2c-0.5-0.5-1.2-0.8-2-0.8
	c-0.9,0-1.7,0.3-2.4,0.8C282,86.7,281.4,87.5,281.1,88.7z M287.1,91.4l2,0.2c-0.3,0.9-1,1.8-2,2.6c-1,0.8-2.3,1.2-3.7,1.2
	c-0.9,0-1.7-0.2-2.5-0.6c-0.7-0.4-1.3-0.9-1.7-1.7c-0.4-0.7-0.6-1.5-0.6-2.5c0-1.2,0.3-2.4,0.9-3.5c0.6-1.1,1.4-2,2.4-2.5
	c1-0.6,2-0.8,3.2-0.8c1.4,0,2.6,0.4,3.5,1.2c0.9,0.8,1.3,1.9,1.3,3.4c0,0.5-0.1,1.1-0.2,1.7h-8.9c0,0.2,0,0.4,0,0.6
	c0,1,0.3,1.8,0.8,2.4c0.5,0.5,1.2,0.8,1.9,0.8c0.7,0,1.4-0.2,2.1-0.6C286.2,92.8,286.7,92.2,287.1,91.4z M265.1,95.2l3.5-15.3h2.1
	l-1.3,5.9c0.8-0.7,1.5-1.2,2.2-1.5c0.7-0.3,1.3-0.4,2-0.4c1,0,1.8,0.2,2.3,0.7c0.6,0.5,0.8,1.1,0.8,1.9c0,0.4-0.1,1.1-0.4,2.1
	l-1.5,6.5h-2.1l1.5-6.7c0.2-1,0.3-1.6,0.3-1.8c0-0.4-0.1-0.7-0.4-0.9c-0.3-0.2-0.7-0.3-1.2-0.3c-0.7,0-1.5,0.2-2.1,0.5
	c-0.7,0.4-1.2,0.8-1.6,1.5c-0.4,0.6-0.7,1.6-1.1,3l-1.1,4.7H265.1z M263.5,93.6l-0.3,1.5c-0.5,0.1-1,0.2-1.4,0.2
	c-0.8,0-1.5-0.2-2-0.6c-0.4-0.3-0.6-0.7-0.6-1.1c0-0.2,0.1-0.8,0.3-1.7l1.5-6.4h-1.6l0.3-1.5h1.6l0.6-2.7l2.4-1.3l-0.9,4h2l-0.3,1.5
	h-2l-1.4,6.1c-0.2,0.8-0.3,1.2-0.3,1.4c0,0.2,0.1,0.4,0.2,0.5c0.1,0.1,0.4,0.2,0.7,0.2C262.7,93.8,263.1,93.7,263.5,93.6z
	 M241.5,90.8c0,1,0.3,1.8,0.8,2.4c0.6,0.5,1.3,0.8,2.1,0.8c0.4,0,0.9-0.1,1.3-0.2c0.4-0.2,0.8-0.4,1.2-0.7c0.4-0.3,0.7-0.7,1-1.1
	c0.3-0.4,0.5-0.9,0.6-1.4c0.2-0.7,0.4-1.3,0.4-2c0-1-0.3-1.8-0.8-2.3c-0.6-0.6-1.2-0.8-2.1-0.8c-0.6,0-1.2,0.1-1.8,0.4
	c-0.5,0.3-1,0.7-1.4,1.2c-0.4,0.5-0.7,1.2-0.9,1.9C241.6,89.6,241.5,90.2,241.5,90.8z M239.4,91c0-2.2,0.7-3.9,2.1-5.4
	c1.2-1.2,2.7-1.8,4.5-1.8c1.5,0,2.6,0.4,3.5,1.3c0.9,0.8,1.3,2,1.3,3.4c0,1.3-0.3,2.5-0.8,3.5c-0.6,1.1-1.4,1.9-2.4,2.5
	c-1,0.6-2.1,0.9-3.3,0.9c-0.9,0-1.8-0.2-2.6-0.6c-0.8-0.4-1.4-0.9-1.8-1.6C239.6,92.6,239.4,91.8,239.4,91z M237.4,93.6l-0.3,1.5
	c-0.5,0.1-1,0.2-1.4,0.2c-0.8,0-1.5-0.2-2-0.6c-0.4-0.3-0.6-0.7-0.6-1.1c0-0.2,0.1-0.8,0.3-1.7l1.5-6.4h-1.6l0.3-1.5h1.6l0.6-2.7
	l2.4-1.3l-0.9,4h2l-0.3,1.5h-2l-1.4,6.1c-0.2,0.8-0.3,1.2-0.3,1.4c0,0.2,0.1,0.4,0.2,0.5c0.1,0.1,0.4,0.2,0.7,0.2
	C236.6,93.8,237,93.7,237.4,93.6z M218.2,95.2l2.5-11.1h1.8l-0.5,2.3c0.6-0.9,1.2-1.5,1.8-1.9c0.6-0.4,1.2-0.6,1.8-0.6
	c0.4,0,0.9,0.1,1.5,0.4l-0.8,1.7c-0.4-0.2-0.8-0.4-1.2-0.4c-0.7,0-1.5,0.4-2.2,1.1c-0.8,0.7-1.4,2.1-1.8,4l-1,4.4H218.2z
	 M208.1,88.7h6.8c0-0.2,0-0.3,0-0.4c0-0.9-0.3-1.7-0.8-2.2c-0.5-0.5-1.2-0.8-2-0.8c-0.9,0-1.7,0.3-2.4,0.8
	C209,86.7,208.5,87.5,208.1,88.7z M214.1,91.4l2,0.2c-0.3,0.9-1,1.8-2,2.6c-1,0.8-2.3,1.2-3.7,1.2c-0.9,0-1.7-0.2-2.5-0.6
	c-0.8-0.4-1.3-0.9-1.7-1.7c-0.4-0.7-0.6-1.5-0.6-2.5c0-1.2,0.3-2.4,0.9-3.5c0.6-1.1,1.4-2,2.4-2.5c1-0.6,2-0.8,3.2-0.8
	c1.4,0,2.6,0.4,3.5,1.2c0.9,0.8,1.3,1.9,1.3,3.4c0,0.5-0.1,1.1-0.2,1.7h-8.9c0,0.2,0,0.4,0,0.6c0,1,0.3,1.8,0.8,2.4
	c0.5,0.5,1.2,0.8,1.9,0.8c0.7,0,1.4-0.2,2.1-0.6C213.2,92.8,213.7,92.2,214.1,91.4z M192.2,95.2l2.5-11.1h1.9l-0.4,1.9
	c0.8-0.8,1.6-1.3,2.3-1.7c0.7-0.3,1.4-0.5,2.2-0.5c1,0,1.8,0.2,2.3,0.7c0.6,0.5,0.8,1.1,0.8,1.9c0,0.4-0.1,1.1-0.3,1.9l-1.5,6.7
	h-2.1l1.6-7c0.2-0.7,0.2-1.2,0.2-1.5c0-0.4-0.1-0.7-0.4-0.9c-0.3-0.2-0.7-0.3-1.2-0.3c-1.1,0-2,0.3-2.8,1c-0.8,0.7-1.4,1.9-1.8,3.6
	l-1.2,5.1H192.2z M190.5,93.6l-0.3,1.5c-0.5,0.1-1,0.2-1.4,0.2c-0.8,0-1.5-0.2-2-0.6c-0.4-0.3-0.6-0.7-0.6-1.1
	c0-0.2,0.1-0.8,0.3-1.7l1.5-6.4h-1.6l0.3-1.5h1.6l0.6-2.7l2.4-1.3l-0.9,4h2l-0.3,1.5h-2l-1.4,6.1c-0.2,0.8-0.3,1.2-0.3,1.4
	c0,0.2,0.1,0.4,0.2,0.5c0.1,0.1,0.4,0.2,0.7,0.2C189.7,93.8,190.1,93.7,190.5,93.6z M177.9,95.2l2.5-11.1h1.8l-0.5,2.3
	c0.6-0.9,1.2-1.5,1.8-1.9c0.6-0.4,1.2-0.6,1.8-0.6c0.4,0,0.9,0.1,1.5,0.4l-0.8,1.7c-0.4-0.2-0.8-0.4-1.2-0.4c-0.7,0-1.5,0.4-2.2,1.1
	c-0.8,0.7-1.4,2.1-1.8,4l-1,4.4H177.9z M173.8,89.6c-0.3,0.1-0.6,0.2-0.9,0.2c-0.3,0.1-0.9,0.1-1.7,0.2c-1.2,0.1-2.1,0.2-2.6,0.4
	c-0.5,0.1-0.9,0.4-1.1,0.7c-0.3,0.3-0.4,0.7-0.4,1.1c0,0.5,0.2,1,0.6,1.3c0.4,0.3,1,0.5,1.7,0.5c0.7,0,1.3-0.2,2-0.5
	c0.6-0.3,1.1-0.8,1.5-1.4C173.3,91.5,173.6,90.6,173.8,89.6z M173,93.8c-0.7,0.6-1.4,1-2.1,1.2c-0.7,0.3-1.4,0.4-2.1,0.4
	c-1.1,0-2-0.3-2.7-0.9c-0.7-0.6-1-1.4-1-2.3c0-0.6,0.2-1.2,0.5-1.6c0.3-0.5,0.7-0.9,1.2-1.1c0.5-0.3,1.1-0.5,1.9-0.6
	c0.5-0.1,1.3-0.1,2.6-0.2c1.3,0,2.2-0.2,2.8-0.4c0.2-0.5,0.2-0.9,0.2-1.3c0-0.4-0.2-0.8-0.5-1c-0.5-0.3-1.2-0.5-2.1-0.5
	c-0.9,0-1.6,0.2-2.1,0.5c-0.6,0.4-1,0.8-1.2,1.5l-2.1-0.2c0.4-1.1,1.1-1.9,2-2.5c0.9-0.6,2.1-0.9,3.5-0.9c1.5,0,2.7,0.3,3.6,1
	c0.7,0.5,1,1.1,1,1.9c0,0.6-0.1,1.3-0.3,2.1l-0.7,2.8c-0.2,0.9-0.3,1.6-0.3,2.1c0,0.3,0.1,0.8,0.3,1.5h-2.1
	C173.1,94.8,173.1,94.3,173,93.8z M153.5,87.2h3.7c1.4,0,2.5-0.1,3.2-0.4c0.7-0.3,1.2-0.7,1.6-1.3c0.4-0.6,0.6-1.2,0.6-1.8
	c0-0.5-0.1-0.9-0.3-1.2c-0.2-0.3-0.5-0.5-0.9-0.7c-0.4-0.1-1.1-0.2-2.2-0.2h-4.3L153.5,87.2z M149.4,95.2l3.5-15.3h7
	c1.2,0,2.1,0.1,2.7,0.4c0.6,0.3,1.1,0.7,1.5,1.3c0.4,0.6,0.6,1.3,0.6,2.1c0,0.6-0.1,1.3-0.4,1.9c-0.3,0.7-0.6,1.2-1.1,1.6
	c-0.4,0.4-0.9,0.7-1.3,1c-0.4,0.2-0.9,0.4-1.4,0.5c-1.1,0.2-2.2,0.3-3.3,0.3h-4.2l-1.4,6.2H149.4z M134.9,95.2l2.5-11.1h1.8
	l-0.5,2.3c0.6-0.9,1.2-1.5,1.8-1.9c0.6-0.4,1.2-0.6,1.8-0.6c0.4,0,0.9,0.1,1.5,0.4l-0.8,1.7c-0.4-0.2-0.8-0.4-1.2-0.4
	c-0.7,0-1.5,0.4-2.2,1.1c-0.8,0.7-1.4,2.1-1.8,4l-1,4.4H134.9z M130.1,93.2c-1.5,1.5-2.9,2.3-4.5,2.3c-0.9,0-1.7-0.2-2.3-0.7
	c-0.6-0.5-0.9-1.1-0.9-1.8c0-0.5,0.1-1.3,0.4-2.4l1.5-6.4h2.1l-1.6,7.1c-0.1,0.6-0.2,1-0.2,1.4c0,0.4,0.1,0.7,0.4,1
	c0.3,0.2,0.7,0.3,1.2,0.3c0.6,0,1.1-0.1,1.7-0.4c0.6-0.3,1-0.6,1.4-1c0.4-0.4,0.7-1,1-1.6c0.2-0.4,0.4-1.1,0.6-2l1.1-4.8h2.1
	l-2.5,11.1h-1.9L130.1,93.2z M111.2,90.8c0,1,0.3,1.8,0.8,2.4c0.6,0.5,1.3,0.8,2.1,0.8c0.4,0,0.9-0.1,1.3-0.2
	c0.4-0.2,0.8-0.4,1.2-0.7c0.4-0.3,0.7-0.7,1-1.1c0.3-0.4,0.5-0.9,0.6-1.4c0.2-0.7,0.4-1.3,0.4-2c0-1-0.3-1.8-0.8-2.3
	c-0.6-0.6-1.2-0.8-2.1-0.8c-0.6,0-1.2,0.1-1.8,0.4c-0.5,0.3-1,0.7-1.4,1.2c-0.4,0.5-0.7,1.2-0.9,1.9
	C111.3,89.6,111.2,90.2,111.2,90.8z M109.2,91c0-2.2,0.7-3.9,2.1-5.4c1.2-1.2,2.7-1.8,4.5-1.8c1.5,0,2.6,0.4,3.5,1.3
	c0.9,0.8,1.3,2,1.3,3.4c0,1.3-0.3,2.5-0.8,3.5c-0.6,1.1-1.4,1.9-2.4,2.5c-1,0.6-2.1,0.9-3.3,0.9c-0.9,0-1.8-0.2-2.6-0.6
	c-0.8-0.4-1.4-0.9-1.8-1.6C109.4,92.6,109.2,91.8,109.2,91z M100.2,95.2l1.3-5.9l-5.2-9.4h2.4l2.5,4.5c0.5,1,1.1,2,1.6,3.1
	c0.6-0.9,1.3-2,2.3-3.1l3.9-4.5h2.7l-8,9.5l-1.3,5.7H100.2z"/>
<path class="st1" d="M326,90.6c0,0.8,0.1,1.4,0.2,1.7c0.2,0.5,0.5,0.8,0.9,1.1c0.4,0.3,0.9,0.4,1.5,0.4c1.2,0,2.2-0.6,2.9-1.8
	c0.7-1.2,1.1-2.5,1.1-3.7c0-0.9-0.2-1.7-0.7-2.2c-0.5-0.5-1.1-0.8-1.8-0.8c-0.5,0-1,0.1-1.5,0.4c-0.4,0.3-0.9,0.6-1.3,1.1
	c-0.4,0.5-0.7,1.1-1,1.8C326.1,89.5,326,90.1,326,90.6z M321.9,99.4l3.5-15.3h1.9l-0.4,1.5c0.7-0.7,1.3-1.1,1.9-1.4
	c0.6-0.3,1.2-0.4,1.8-0.4c1.2,0,2.1,0.4,2.9,1.2c0.8,0.8,1.1,1.9,1.1,3.3c0,1.2-0.2,2.2-0.6,3.2c-0.4,0.9-0.9,1.7-1.5,2.3
	c-0.6,0.6-1.2,1-1.9,1.3c-0.6,0.3-1.3,0.4-1.9,0.4c-1.5,0-2.6-0.7-3.4-2l-1.4,6H321.9z M312.3,90.8c0,1,0.3,1.8,0.8,2.4
	c0.6,0.5,1.3,0.8,2.1,0.8c0.4,0,0.9-0.1,1.3-0.2c0.4-0.2,0.8-0.4,1.2-0.7c0.4-0.3,0.7-0.7,1-1.1c0.3-0.4,0.5-0.9,0.6-1.4
	c0.2-0.7,0.4-1.3,0.4-2c0-1-0.3-1.8-0.8-2.3c-0.6-0.6-1.2-0.8-2.1-0.8c-0.6,0-1.2,0.1-1.8,0.4c-0.5,0.3-1,0.7-1.4,1.2
	c-0.4,0.5-0.7,1.2-0.9,1.9C312.4,89.6,312.3,90.2,312.3,90.8z M310.2,91c0-2.2,0.7-3.9,2.1-5.4c1.2-1.2,2.7-1.8,4.5-1.8
	c1.5,0,2.6,0.4,3.5,1.3c0.9,0.8,1.3,2,1.3,3.4c0,1.3-0.3,2.5-0.8,3.5c-0.6,1.1-1.4,1.9-2.4,2.5c-1,0.6-2.1,0.9-3.3,0.9
	c-0.9,0-1.8-0.2-2.6-0.6c-0.8-0.4-1.4-0.9-1.8-1.6C310.4,92.6,310.2,91.8,310.2,91z M302.3,95.2l3.1-13.5h-5.5l0.4-1.7h13.2
	l-0.4,1.7h-5.5l-3.1,13.5H302.3z M281.1,88.7h6.8c0-0.2,0-0.3,0-0.4c0-0.9-0.3-1.7-0.8-2.2c-0.5-0.5-1.2-0.8-2-0.8
	c-0.9,0-1.7,0.3-2.4,0.8C282,86.7,281.4,87.5,281.1,88.7z M287.1,91.4l2,0.2c-0.3,0.9-1,1.8-2,2.6c-1,0.8-2.3,1.2-3.7,1.2
	c-0.9,0-1.7-0.2-2.5-0.6c-0.7-0.4-1.3-0.9-1.7-1.7c-0.4-0.7-0.6-1.5-0.6-2.5c0-1.2,0.3-2.4,0.9-3.5c0.6-1.1,1.4-2,2.4-2.5
	c1-0.6,2-0.8,3.2-0.8c1.4,0,2.6,0.4,3.5,1.2c0.9,0.8,1.3,1.9,1.3,3.4c0,0.5-0.1,1.1-0.2,1.7h-8.9c0,0.2,0,0.4,0,0.6
	c0,1,0.3,1.8,0.8,2.4c0.5,0.5,1.2,0.8,1.9,0.8c0.7,0,1.4-0.2,2.1-0.6C286.2,92.8,286.7,92.2,287.1,91.4z M265.1,95.2l3.5-15.3h2.1
	l-1.3,5.9c0.8-0.7,1.5-1.2,2.2-1.5c0.7-0.3,1.3-0.4,2-0.4c1,0,1.8,0.2,2.3,0.7c0.6,0.5,0.8,1.1,0.8,1.9c0,0.4-0.1,1.1-0.4,2.1
	l-1.5,6.5h-2.1l1.5-6.7c0.2-1,0.3-1.6,0.3-1.8c0-0.4-0.1-0.7-0.4-0.9c-0.3-0.2-0.7-0.3-1.2-0.3c-0.7,0-1.5,0.2-2.1,0.5
	c-0.7,0.4-1.2,0.8-1.6,1.5c-0.4,0.6-0.7,1.6-1.1,3l-1.1,4.7H265.1z M263.5,93.6l-0.3,1.5c-0.5,0.1-1,0.2-1.4,0.2
	c-0.8,0-1.5-0.2-2-0.6c-0.4-0.3-0.6-0.7-0.6-1.1c0-0.2,0.1-0.8,0.3-1.7l1.5-6.4h-1.6l0.3-1.5h1.6l0.6-2.7l2.4-1.3l-0.9,4h2l-0.3,1.5
	h-2l-1.4,6.1c-0.2,0.8-0.3,1.2-0.3,1.4c0,0.2,0.1,0.4,0.2,0.5c0.1,0.1,0.4,0.2,0.7,0.2C262.7,93.8,263.1,93.7,263.5,93.6z
	 M241.5,90.8c0,1,0.3,1.8,0.8,2.4c0.6,0.5,1.3,0.8,2.1,0.8c0.4,0,0.9-0.1,1.3-0.2c0.4-0.2,0.8-0.4,1.2-0.7c0.4-0.3,0.7-0.7,1-1.1
	c0.3-0.4,0.5-0.9,0.6-1.4c0.2-0.7,0.4-1.3,0.4-2c0-1-0.3-1.8-0.8-2.3c-0.6-0.6-1.2-0.8-2.1-0.8c-0.6,0-1.2,0.1-1.8,0.4
	c-0.5,0.3-1,0.7-1.4,1.2c-0.4,0.5-0.7,1.2-0.9,1.9C241.6,89.6,241.5,90.2,241.5,90.8z M239.4,91c0-2.2,0.7-3.9,2.1-5.4
	c1.2-1.2,2.7-1.8,4.5-1.8c1.5,0,2.6,0.4,3.5,1.3c0.9,0.8,1.3,2,1.3,3.4c0,1.3-0.3,2.5-0.8,3.5c-0.6,1.1-1.4,1.9-2.4,2.5
	c-1,0.6-2.1,0.9-3.3,0.9c-0.9,0-1.8-0.2-2.6-0.6c-0.8-0.4-1.4-0.9-1.8-1.6C239.6,92.6,239.4,91.8,239.4,91z M237.4,93.6l-0.3,1.5
	c-0.5,0.1-1,0.2-1.4,0.2c-0.8,0-1.5-0.2-2-0.6c-0.4-0.3-0.6-0.7-0.6-1.1c0-0.2,0.1-0.8,0.3-1.7l1.5-6.4h-1.6l0.3-1.5h1.6l0.6-2.7
	l2.4-1.3l-0.9,4h2l-0.3,1.5h-2l-1.4,6.1c-0.2,0.8-0.3,1.2-0.3,1.4c0,0.2,0.1,0.4,0.2,0.5c0.1,0.1,0.4,0.2,0.7,0.2
	C236.6,93.8,237,93.7,237.4,93.6z M218.2,95.2l2.5-11.1h1.8l-0.5,2.3c0.6-0.9,1.2-1.5,1.8-1.9c0.6-0.4,1.2-0.6,1.8-0.6
	c0.4,0,0.9,0.1,1.5,0.4l-0.8,1.7c-0.4-0.2-0.8-0.4-1.2-0.4c-0.7,0-1.5,0.4-2.2,1.1c-0.8,0.7-1.4,2.1-1.8,4l-1,4.4H218.2z
	 M208.1,88.7h6.8c0-0.2,0-0.3,0-0.4c0-0.9-0.3-1.7-0.8-2.2c-0.5-0.5-1.2-0.8-2-0.8c-0.9,0-1.7,0.3-2.4,0.8
	C209,86.7,208.5,87.5,208.1,88.7z M214.1,91.4l2,0.2c-0.3,0.9-1,1.8-2,2.6c-1,0.8-2.3,1.2-3.7,1.2c-0.9,0-1.7-0.2-2.5-0.6
	c-0.8-0.4-1.3-0.9-1.7-1.7c-0.4-0.7-0.6-1.5-0.6-2.5c0-1.2,0.3-2.4,0.9-3.5c0.6-1.1,1.4-2,2.4-2.5c1-0.6,2-0.8,3.2-0.8
	c1.4,0,2.6,0.4,3.5,1.2c0.9,0.8,1.3,1.9,1.3,3.4c0,0.5-0.1,1.1-0.2,1.7h-8.9c0,0.2,0,0.4,0,0.6c0,1,0.3,1.8,0.8,2.4
	c0.5,0.5,1.2,0.8,1.9,0.8c0.7,0,1.4-0.2,2.1-0.6C213.2,92.8,213.7,92.2,214.1,91.4z M192.2,95.2l2.5-11.1h1.9l-0.4,1.9
	c0.8-0.8,1.6-1.3,2.3-1.7c0.7-0.3,1.4-0.5,2.2-0.5c1,0,1.8,0.2,2.3,0.7c0.6,0.5,0.8,1.1,0.8,1.9c0,0.4-0.1,1.1-0.3,1.9l-1.5,6.7
	h-2.1l1.6-7c0.2-0.7,0.2-1.2,0.2-1.5c0-0.4-0.1-0.7-0.4-0.9c-0.3-0.2-0.7-0.3-1.2-0.3c-1.1,0-2,0.3-2.8,1c-0.8,0.7-1.4,1.9-1.8,3.6
	l-1.2,5.1H192.2z M190.5,93.6l-0.3,1.5c-0.5,0.1-1,0.2-1.4,0.2c-0.8,0-1.5-0.2-2-0.6c-0.4-0.3-0.6-0.7-0.6-1.1
	c0-0.2,0.1-0.8,0.3-1.7l1.5-6.4h-1.6l0.3-1.5h1.6l0.6-2.7l2.4-1.3l-0.9,4h2l-0.3,1.5h-2l-1.4,6.1c-0.2,0.8-0.3,1.2-0.3,1.4
	c0,0.2,0.1,0.4,0.2,0.5c0.1,0.1,0.4,0.2,0.7,0.2C189.7,93.8,190.1,93.7,190.5,93.6z M177.9,95.2l2.5-11.1h1.8l-0.5,2.3
	c0.6-0.9,1.2-1.5,1.8-1.9c0.6-0.4,1.2-0.6,1.8-0.6c0.4,0,0.9,0.1,1.5,0.4l-0.8,1.7c-0.4-0.2-0.8-0.4-1.2-0.4c-0.7,0-1.5,0.4-2.2,1.1
	c-0.8,0.7-1.4,2.1-1.8,4l-1,4.4H177.9z M173.8,89.6c-0.3,0.1-0.6,0.2-0.9,0.2c-0.3,0.1-0.9,0.1-1.7,0.2c-1.2,0.1-2.1,0.2-2.6,0.4
	c-0.5,0.1-0.9,0.4-1.1,0.7c-0.3,0.3-0.4,0.7-0.4,1.1c0,0.5,0.2,1,0.6,1.3c0.4,0.3,1,0.5,1.7,0.5c0.7,0,1.3-0.2,2-0.5
	c0.6-0.3,1.1-0.8,1.5-1.4C173.3,91.5,173.6,90.6,173.8,89.6z M173,93.8c-0.7,0.6-1.4,1-2.1,1.2c-0.7,0.3-1.4,0.4-2.1,0.4
	c-1.1,0-2-0.3-2.7-0.9c-0.7-0.6-1-1.4-1-2.3c0-0.6,0.2-1.2,0.5-1.6c0.3-0.5,0.7-0.9,1.2-1.1c0.5-0.3,1.1-0.5,1.9-0.6
	c0.5-0.1,1.3-0.1,2.6-0.2c1.3,0,2.2-0.2,2.8-0.4c0.2-0.5,0.2-0.9,0.2-1.3c0-0.4-0.2-0.8-0.5-1c-0.5-0.3-1.2-0.5-2.1-0.5
	c-0.9,0-1.6,0.2-2.1,0.5c-0.6,0.4-1,0.8-1.2,1.5l-2.1-0.2c0.4-1.1,1.1-1.9,2-2.5c0.9-0.6,2.1-0.9,3.5-0.9c1.5,0,2.7,0.3,3.6,1
	c0.7,0.5,1,1.1,1,1.9c0,0.6-0.1,1.3-0.3,2.1l-0.7,2.8c-0.2,0.9-0.3,1.6-0.3,2.1c0,0.3,0.1,0.8,0.3,1.5h-2.1
	C173.1,94.8,173.1,94.3,173,93.8z M153.5,87.2h3.7c1.4,0,2.5-0.1,3.2-0.4c0.7-0.3,1.2-0.7,1.6-1.3c0.4-0.6,0.6-1.2,0.6-1.8
	c0-0.5-0.1-0.9-0.3-1.2c-0.2-0.3-0.5-0.5-0.9-0.7c-0.4-0.1-1.1-0.2-2.2-0.2h-4.3L153.5,87.2z M149.4,95.2l3.5-15.3h7
	c1.2,0,2.1,0.1,2.7,0.4c0.6,0.3,1.1,0.7,1.5,1.3c0.4,0.6,0.6,1.3,0.6,2.1c0,0.6-0.1,1.3-0.4,1.9c-0.3,0.7-0.6,1.2-1.1,1.6
	c-0.4,0.4-0.9,0.7-1.3,1c-0.4,0.2-0.9,0.4-1.4,0.5c-1.1,0.2-2.2,0.3-3.3,0.3h-4.2l-1.4,6.2H149.4z M134.9,95.2l2.5-11.1h1.8
	l-0.5,2.3c0.6-0.9,1.2-1.5,1.8-1.9c0.6-0.4,1.2-0.6,1.8-0.6c0.4,0,0.9,0.1,1.5,0.4l-0.8,1.7c-0.4-0.2-0.8-0.4-1.2-0.4
	c-0.7,0-1.5,0.4-2.2,1.1c-0.8,0.7-1.4,2.1-1.8,4l-1,4.4H134.9z M130.1,93.2c-1.5,1.5-2.9,2.3-4.5,2.3c-0.9,0-1.7-0.2-2.3-0.7
	c-0.6-0.5-0.9-1.1-0.9-1.8c0-0.5,0.1-1.3,0.4-2.4l1.5-6.4h2.1l-1.6,7.1c-0.1,0.6-0.2,1-0.2,1.4c0,0.4,0.1,0.7,0.4,1
	c0.3,0.2,0.7,0.3,1.2,0.3c0.6,0,1.1-0.1,1.7-0.4c0.6-0.3,1-0.6,1.4-1c0.4-0.4,0.7-1,1-1.6c0.2-0.4,0.4-1.1,0.6-2l1.1-4.8h2.1
	l-2.5,11.1h-1.9L130.1,93.2z M111.2,90.8c0,1,0.3,1.8,0.8,2.4c0.6,0.5,1.3,0.8,2.1,0.8c0.4,0,0.9-0.1,1.3-0.2
	c0.4-0.2,0.8-0.4,1.2-0.7c0.4-0.3,0.7-0.7,1-1.1c0.3-0.4,0.5-0.9,0.6-1.4c0.2-0.7,0.4-1.3,0.4-2c0-1-0.3-1.8-0.8-2.3
	c-0.6-0.6-1.2-0.8-2.1-0.8c-0.6,0-1.2,0.1-1.8,0.4c-0.5,0.3-1,0.7-1.4,1.2c-0.4,0.5-0.7,1.2-0.9,1.9
	C111.3,89.6,111.2,90.2,111.2,90.8z M109.2,91c0-2.2,0.7-3.9,2.1-5.4c1.2-1.2,2.7-1.8,4.5-1.8c1.5,0,2.6,0.4,3.5,1.3
	c0.9,0.8,1.3,2,1.3,3.4c0,1.3-0.3,2.5-0.8,3.5c-0.6,1.1-1.4,1.9-2.4,2.5c-1,0.6-2.1,0.9-3.3,0.9c-0.9,0-1.8-0.2-2.6-0.6
	c-0.8-0.4-1.4-0.9-1.8-1.6C109.4,92.6,109.2,91.8,109.2,91z M100.2,95.2l1.3-5.9l-5.2-9.4h2.4l2.5,4.5c0.5,1,1.1,2,1.6,3.1
	c0.6-0.9,1.3-2,2.3-3.1l3.9-4.5h2.7l-8,9.5l-1.3,5.7H100.2z"/>
<polygon class="st2" points="10.9,17.6 45.8,9.4 69.1,26.8 36.9,38.5 6.8,19.8 30.1,42.8 35.3,103.3 38.5,44.2 79.4,29 46.3,3.3 "/>
<polygon class="st2" points="45.5,46.2 50.4,44 44.7,102 "/>
<polygon class="st2" points="56,42.9 60.9,40.7 52.7,99.4 "/>
<polygon class="st2" points="66.4,38.9 71.3,36.7 59.9,95.7 "/>
<polygon class="st2" points="74.9,34.5 79.9,32.3 66.1,93.1 "/>
<polygon class="st2" points="3.3,22.5 9.1,25.9 20.8,102.8 "/>
</svg>
